<?xml version="1.0" encoding="utf-8"?>
<!-- Generator: Adobe Illustrator 16.2.1, SVG Export Plug-In . SVG Version: 6.00 Build 0)  -->
<!DOCTYPE svg PUBLIC "-//W3C//DTD SVG 1.1//EN" "http://www.w3.org/Graphics/SVG/1.1/DTD/svg11.dtd">
<svg version="1.1" id="Layer_1" xmlns="http://www.w3.org/2000/svg" xmlns:xlink="http://www.w3.org/1999/xlink" x="0px" y="0px"
	 width="1000px" height="764px" viewBox="0 0 1000 764" enable-background="new 0 0 1000 764" xml:space="preserve">
<g>
	<circle opacity="0.1" cx="832.469" cy="369.443" r="10.106"/>
	<circle opacity="0.1" cx="168.294" cy="611.5" r="10.106"/>
	<circle opacity="0.1" cx="188.279" cy="381.903" r="10.106"/>
	<circle opacity="0.1" cx="740.103" cy="176.322" r="10.106"/>
	<circle opacity="0.1" cx="255.459" cy="283.104" r="19.174"/>
	<circle opacity="0.1" cx="79.423" cy="369.008" r="35.548"/>
	<circle opacity="0.1" cx="943.504" cy="573.684" r="23.904"/>
	<path opacity="0.1" d="M195.905,227.833l-22.58-22.581c-4.729-4.729-12.396-4.729-17.126,0l-22.58,22.581
		c-4.729,4.729-4.729,12.396,0,17.125l22.58,22.58c4.729,4.729,12.396,4.729,17.126,0l22.58-22.58
		C200.634,240.229,200.634,232.562,195.905,227.833z"/>
	<path opacity="0.1" d="M974.647,377.727l-22.581-22.581c-4.729-4.729-12.396-4.729-17.125,0l-22.581,22.581
		c-4.729,4.729-4.729,12.396,0,17.125l22.581,22.58c4.729,4.729,12.396,4.729,17.125,0l22.581-22.58
		C979.376,390.123,979.376,382.455,974.647,377.727z"/>
	<path opacity="0.1" d="M68.275,507.443L53.742,492.91c-3.044-3.044-7.979-3.044-11.022,0l-14.534,14.533
		c-3.044,3.044-3.044,7.979,0,11.023L42.719,533c3.044,3.044,7.979,3.044,11.022,0l14.534-14.533
		C71.319,515.422,71.319,510.487,68.275,507.443z"/>
	<path opacity="0.1" d="M864.736,631.939l-14.533-14.534c-3.045-3.043-7.979-3.043-11.022,0l-14.534,14.534
		c-3.044,3.043-3.044,7.979,0,11.022l14.534,14.533c3.043,3.044,7.978,3.044,11.022,0l14.533-14.533
		C867.78,639.918,867.78,634.982,864.736,631.939z"/>
	<path opacity="0.1" d="M397.548,134.022l-14.534-14.534c-3.044-3.044-7.979-3.044-11.022,0l-14.534,14.534
		c-3.044,3.044-3.044,7.979,0,11.022l14.534,14.534c3.043,3.044,7.979,3.044,11.022,0l14.534-14.534
		C400.592,142.001,400.592,137.066,397.548,134.022z"/>
	<path opacity="0.1" d="M875.353,262l-14.534-14.534c-3.043-3.044-7.978-3.044-11.022,0L835.262,262
		c-3.043,3.044-3.043,7.979,0,11.022l14.534,14.534c3.045,3.044,7.979,3.044,11.022,0l14.534-14.534
		C878.396,269.978,878.396,265.043,875.353,262z"/>
	<path opacity="0.1" d="M277.31,166.234l6.064-22.633c0.501-1.87-1.21-3.581-3.08-3.08l-22.633,6.064
		c-1.869,0.501-2.496,2.839-1.127,4.207l16.568,16.569C274.472,168.73,276.809,168.104,277.31,166.234z"/>
	<path opacity="0.1" d="M651.32,161.09l10.924-40.765c0.901-3.368-2.18-6.45-5.548-5.547L615.931,125.7
		c-3.367,0.902-4.495,5.112-2.03,7.578l29.842,29.842C646.209,165.585,650.418,164.458,651.32,161.09z"/>
	<path opacity="0.1" d="M164.241,478.312l-9.216,34.393c-0.762,2.843,1.838,5.441,4.68,4.681l34.394-9.216
		c2.841-0.762,3.793-4.312,1.713-6.393L170.634,476.6C168.554,474.52,165.002,475.471,164.241,478.312z"/>
	<path opacity="0.1" d="M92.04,614.338l-28.804,16.631c-2.38,1.374-2.38,4.809,0,6.182l28.804,16.631
		c2.379,1.374,5.354-0.344,5.354-3.091V617.43C97.394,614.682,94.419,612.964,92.04,614.338z"/>
	<path opacity="0.1" d="M887.404,506.596l-27.065-46.88c-2.236-3.873-7.826-3.873-10.062,0l-27.065,46.88
		c-2.236,3.872,0.559,8.714,5.031,8.714h54.131C886.846,515.31,889.641,510.468,887.404,506.596z"/>
	<g>
		<g>
			<g>
				<g>
					<g>
						<g>
							<g>
								<g>
									<path fill="#B3B3B6" d="M786.185,712.586H213.462c-8.65,0-27.444-8.555-27.444-8.555h627.609
										C813.628,704.031,794.834,712.586,786.185,712.586z"/>
								</g>
							</g>
						</g>
					</g>
				</g>
			</g>
		</g>
		<g>
			<g>
				<g>
					<g>
						<g>
							<rect x="259.544" y="371.707" fill="#6D16E6" width="480.559" height="300.656"/>
						</g>
					</g>
				</g>
			</g>
		</g>
		<g>
			<g>
				<g>
					<g>
						<g>
							<path fill="#181818" d="M736.077,357.29H264.722c-10.46,0-19.018,8.559-19.018,19.019V686.78h509.392V376.309
								C755.096,365.849,746.537,357.29,736.077,357.29z M731.17,662.854H269.63V381.217h461.54V662.854z"/>
						</g>
					</g>
				</g>
			</g>
		</g>
		<g>
			<g>
				<g>
					<g>
						<g>
							<g>
								<g>
									<path fill="#D2D3D5" d="M187.95,686.78h623.748c1.065,0,1.931,0.864,1.931,1.932v15.271H186.019v-15.271
										C186.019,687.645,186.883,686.78,187.95,686.78z"/>
								</g>
							</g>
						</g>
					</g>
				</g>
			</g>
		</g>
		<g>
			<g>
				<g>
					<path fill="#B3B3B6" d="M500.4,686.78h-56.533v1.153c0,4.113,3.335,7.449,7.448,7.449H500.4h49.083
						c4.113,0,7.449-3.336,7.449-7.449v-1.153H500.4z"/>
				</g>
			</g>
		</g>
		<g>
			<g>
				<g>
					<g>
						<g>
							<g>
								<g>
									<g>
										<g>
											<path fill="none" stroke="#00A3FB" stroke-width="3.5647" stroke-linecap="round" stroke-miterlimit="10" d="
												M631.94,561.552"/>
										</g>
									</g>
								</g>
							</g>
						</g>
					</g>
				</g>
				<g>
					<g>
						<g>
							<g>
								<g>
									<g>
										<g>
											<path fill="none" stroke="#00A3FB" stroke-width="3.5647" stroke-linecap="round" stroke-miterlimit="10" d="
												M607.919,561.552"/>
										</g>
									</g>
								</g>
							</g>
						</g>
					</g>
				</g>
				<g>
					<g>
						<g>
							<g>
								<g>
									<g>
										<g>
											<path fill="none" stroke="#FFFFFF" stroke-width="3.5647" stroke-linecap="round" stroke-miterlimit="10" d="
												M631.94,561.552"/>
										</g>
									</g>
								</g>
							</g>
						</g>
					</g>
				</g>
				<g>
					<g>
						<g>
							<g>
								<g>
									<g>
										<g>
											<path fill="none" stroke="#FFFFFF" stroke-width="3.5647" stroke-linecap="round" stroke-miterlimit="10" d="
												M495.619,561.552"/>
										</g>
									</g>
								</g>
							</g>
						</g>
					</g>
				</g>
			</g>
		</g>
		<g>
			<g>
				<g>
					<g>
						<g>
							<g>
								<g>
									<rect x="309.6" y="259.638" fill="#33B7FF" width="380.446" height="403.216"/>
								</g>
							</g>
						</g>
					</g>
				</g>
			</g>
			<g>
				<g>
					<g>
						<g>
							<rect x="313.287" y="256.956" fill="#FFFFFF" width="374.062" height="248.996"/>
						</g>
					</g>
				</g>
			</g>
			<g>
				<g>
					<g>
						<g>
							<path fill="#C7C8D9" d="M685.638,217.401H314.009c-3.113,0-5.636,2.523-5.636,5.636v439.817h5.314l0.009-403.216H685.96
								v403.216h5.314V259.638l0,0v-36.601C691.274,219.924,688.751,217.401,685.638,217.401z"/>
						</g>
					</g>
				</g>
				<g>
					<g>
						<g>
							<g>
								<g>
									<g>
										<g>
											<circle fill="#FFFFFF" cx="617.729" cy="238.732" r="6.605"/>
										</g>
									</g>
								</g>
							</g>
						</g>
					</g>
				</g>
				<g>
					<g>
						<g>
							<g>
								<g>
									<g>
										<g>
											<path fill="#FFFFFF" d="M593.353,245.338H329.426c-1.788,0-3.238-1.449-3.238-3.237v-6.736
												c0-1.788,1.45-3.238,3.238-3.238h263.927c1.789,0,3.237,1.45,3.237,3.238v6.736
												C596.59,243.889,595.142,245.338,593.353,245.338z"/>
										</g>
									</g>
								</g>
							</g>
						</g>
					</g>
				</g>
				<g>
					<g>
						<g>
							<g>
								<g>
									<g>
										<g>
											<circle fill="#FFFFFF" cx="642.431" cy="238.732" r="6.606"/>
										</g>
									</g>
								</g>
							</g>
						</g>
					</g>
				</g>
				<g>
					<g>
						<g>
							<g>
								<g>
									<g>
										<g>
											<circle fill="#E62E4C" cx="666.853" cy="238.732" r="6.606"/>
										</g>
									</g>
								</g>
							</g>
						</g>
					</g>
				</g>
			</g>
			<g>
				<g>
					<g>
						<rect x="363.82" y="401.554" fill="#ACB2BF" width="27.366" height="85.696"/>
					</g>
				</g>
			</g>
			<g>
				<g>
					<g>
						<rect x="404.87" y="426.928" fill="#ACB2BF" width="27.367" height="60.322"/>
					</g>
				</g>
			</g>
			<g>
				<g>
					<g>
						<rect x="445.92" y="405.614" fill="#ACB2BF" width="27.367" height="81.636"/>
					</g>
				</g>
			</g>
			<g>
				<g>
					<g>
						<rect x="486.97" y="381.958" fill="#ACB2BF" width="27.367" height="105.292"/>
					</g>
				</g>
			</g>
			<g>
				<g>
					<g>
						<rect x="528.021" y="405.614" fill="#ACB2BF" width="27.366" height="81.636"/>
					</g>
				</g>
			</g>
			<g>
				<g>
					<g>
						<rect x="569.07" y="389.577" fill="#ACB2BF" width="27.367" height="97.673"/>
					</g>
				</g>
			</g>
			<g>
				<g>
					<g>
						<rect x="610.12" y="353.411" fill="#ACB2BF" width="27.367" height="133.839"/>
					</g>
				</g>
			</g>
			<g>
				<g>
					<g>
						<path fill="#F22547" d="M446.92,292.966h-83.1c-2.195,0-3.975-1.78-3.975-3.975s1.78-3.975,3.975-3.975h83.1
							c2.195,0,3.975,1.78,3.975,3.975S449.115,292.966,446.92,292.966z"/>
					</g>
				</g>
			</g>
			<g>
				<g>
					<g>
						<path fill="#F22547" d="M421.567,307.262H363.82c-2.195,0-3.975-1.779-3.975-3.974c0-2.196,1.78-3.975,3.975-3.975h57.748
							c2.196,0,3.975,1.779,3.975,3.975C425.542,305.483,423.764,307.262,421.567,307.262z"/>
					</g>
				</g>
			</g>
			<g>
				<g>
					<g>
						<g>
							<path fill="#ACB2BF" d="M462.306,328.91H363.82c-2.195,0-3.975-1.779-3.975-3.975s1.78-3.975,3.975-3.975h98.486
								c2.194,0,3.975,1.779,3.975,3.975S464.5,328.91,462.306,328.91z"/>
						</g>
					</g>
				</g>
				<g>
					<g>
						<g>
							<path fill="#ACB2BF" d="M515.758,328.91h-32.648c-2.195,0-3.975-1.779-3.975-3.975s1.779-3.975,3.975-3.975h32.648
								c2.196,0,3.975,1.779,3.975,3.975S517.954,328.91,515.758,328.91z"/>
						</g>
					</g>
				</g>
				<g>
					<g>
						<g>
							<path fill="#ACB2BF" d="M394.968,343.206H363.82c-2.195,0-3.975-1.779-3.975-3.975c0-2.194,1.78-3.975,3.975-3.975h31.148
								c2.195,0,3.975,1.78,3.975,3.975C398.943,341.427,397.163,343.206,394.968,343.206z"/>
						</g>
					</g>
				</g>
				<g>
					<g>
						<g>
							<path fill="#ACB2BF" d="M515.758,343.206h-99.986c-2.195,0-3.975-1.779-3.975-3.975c0-2.194,1.779-3.975,3.975-3.975h99.986
								c2.196,0,3.975,1.78,3.975,3.975C519.732,341.427,517.954,343.206,515.758,343.206z"/>
						</g>
					</g>
				</g>
				<g>
					<g>
						<g>
							<path fill="#ACB2BF" d="M363.82,357.503c-2.193,0-3.971-1.775-3.975-3.969c-0.003-2.195,1.773-3.978,3.968-3.98l76.685-0.117
								c0,0,0.005,0,0.006,0c2.193,0,3.972,1.775,3.975,3.968c0.004,2.195-1.773,3.978-3.968,3.981l-76.685,0.117H363.82z"/>
						</g>
					</g>
				</g>
				<g>
					<g>
						<g>
							<path fill="#ACB2BF" d="M515.758,357.503c-0.002,0-0.004,0-0.004,0l-54.454-0.117c-2.195-0.005-3.971-1.789-3.966-3.983
								c0.004-2.192,1.783-3.966,3.975-3.966c0,0,0.005,0,0.008,0l54.451,0.117c2.194,0.005,3.97,1.788,3.965,3.983
								C519.729,355.729,517.949,357.503,515.758,357.503z"/>
						</g>
					</g>
				</g>
			</g>
			<g>
				<g>
					<g>
						<circle fill="#ACB2BF" cx="616.614" cy="309.864" r="20.873"/>
					</g>
				</g>
			</g>
			<g>
				<g>
					<g>
						<g>
							<path fill="#FFFFFF" d="M523.379,531.402H364.207c-2.375,0-4.319-1.944-4.319-4.319l0,0c0-2.376,1.944-4.32,4.319-4.32
								h159.172c2.375,0,4.319,1.944,4.319,4.32l0,0C527.698,529.674,525.754,531.402,523.379,531.402z"/>
						</g>
					</g>
				</g>
				<g>
					<g>
						<g>
							<path fill="#FFFFFF" d="M478.024,548.681H364.208c-2.376,0-4.32-1.944-4.32-4.319l0,0c0-2.376,1.944-4.32,4.32-4.32h113.816
								c2.376,0,4.319,1.944,4.319,4.32l0,0C482.344,546.952,480.4,548.681,478.024,548.681z"/>
						</g>
					</g>
				</g>
			</g>
		</g>
		<path fill="#FFFFFF" d="M709.643,605.365c-12.935,0-24.447,6.056-31.884,15.478c-5.754-15.432-20.618-26.425-38.057-26.425
			c-3.632,0-7.149,0.483-10.5,1.378c-6.932-12.468-20.231-20.907-35.509-20.907c-8.148,0-15.731,2.409-22.091,6.543
			c0.025-0.545,0.042-1.091,0.042-1.641c0-19.719-15.985-35.705-35.704-35.705c-7.157,0-13.817,2.114-19.404,5.739
			c-3.369-17.171-18.496-30.127-36.653-30.127c-20.634,0-37.36,16.728-37.36,37.36c0,0.985,0.05,1.959,0.125,2.926
			c-6.309-5.617-14.619-9.035-23.73-9.035c-18.048,0-32.958,13.393-35.359,30.78c-7.163-6.34-16.575-10.193-26.893-10.193
			c-22.426,0-40.606,18.179-40.606,40.605c0,0.938,0.043,1.864,0.105,2.785c-7.067-5.962-16.192-9.562-26.162-9.562
			c-12.135,0-23.018,5.329-30.459,13.768v43.722h94.748h304.386h81.425v-43.722C732.661,610.694,721.778,605.365,709.643,605.365z"
			/>
		<g>
			<g>
				<g>
					<polygon fill="#FFCB66" points="583.831,662.854 415.809,662.854 463.304,309.125 536.335,309.125 					"/>
					<polygon fill="#FFA64D" points="553.292,662.854 446.347,662.854 483.627,309.125 516.013,309.125 					"/>
				</g>
				<path fill="#B3364A" d="M547.294,186.868c19.548,21.391,34.822,47.056,41.764,59.592c2.743,4.953,3.933,10.6,3.406,16.237
					c-1.583,16.964-6.415,55.273-19.19,80.049l-41.771-77.939L547.294,186.868z"/>
				<path fill="#B3364A" d="M452.445,186.868c-19.548,21.391-34.823,47.056-41.765,59.592c-2.743,4.953-3.932,10.6-3.406,16.237
					c1.584,16.964,6.416,55.273,19.19,80.049l41.771-77.939L452.445,186.868z"/>
			</g>
			<path fill="#E6455F" d="M499.819,33.707c0,0-59.77,37.017-59.77,161.651c0,38.035,19.018,88.976,19.018,88.976h40.752h40.752
				c0,0,19.02-50.94,19.02-88.976C559.591,70.724,499.819,33.707,499.819,33.707z"/>
			<g>
				<circle fill="#FFFFFF" cx="499.82" cy="133.89" r="26.489"/>
				<path fill="#B3364A" d="M499.819,166.492c-17.977,0-32.603-14.626-32.603-32.603s14.626-32.602,32.603-32.602
					s32.602,14.625,32.602,32.602S517.796,166.492,499.819,166.492z M499.819,113.514c-11.235,0-20.376,9.14-20.376,20.376
					s9.141,20.376,20.376,20.376s20.376-9.14,20.376-20.376S511.055,113.514,499.819,113.514z"/>
			</g>
			<path fill="#B3364A" d="M499.819,205.207c-8.84,6.664-13.503,17.5-12.267,28.501l12.267,109.038l12.267-109.038
				C513.324,222.708,508.66,211.871,499.819,205.207z"/>
		</g>
		<path fill="#E4E7EC" d="M629.228,644.214c-8.868,0-16.904,3.548-22.78,9.297c0.041-0.606,0.069-1.217,0.069-1.833
			c0-15.024-12.181-27.204-27.205-27.204c-7.452,0-14.203,3-19.117,7.854c-3.561-12.285-14.89-21.27-28.321-21.27
			c-6.199,0-11.949,1.917-16.696,5.185c-3.647-14.009-16.379-24.349-31.529-24.349c-17.61,0-31.947,13.974-32.551,31.436
			c-4.721-3.943-10.797-6.32-17.43-6.32c-15.024,0-27.205,12.18-27.205,27.204c0,0.904,0.047,1.797,0.133,2.679
			c-5.668-4.778-12.987-7.663-20.981-7.663c-14.886,0-27.431,9.987-31.323,23.625h304.386
			C653.453,651.835,642.231,644.214,629.228,644.214z"/>
		<g>
			<path fill="#F22547" d="M802.781,220.974l-157.338,63.437l45.277,18.433l-109.46,120.3l-33.109-25.293l-0.678-0.522
				c-2.967-2.26-7.124-2.631-10.529-0.614l-77.593,45.942l-38.836-19.298l-0.305-0.152c-1.386-0.685-3.108-0.485-4.308,0.629
				l-74.604,69.289l77.561-61.254l37.837,22.918c1.546,0.921,3.54,1.094,5.283,0.257l0.465-0.223l77.523-37.192l34.946,31.518
				c4.391,3.931,11.172,4.042,15.655,0.011l0.832-0.748l128.851-115.86l18.165,45.386L802.781,220.974z"/>
		</g>
	</g>
</g>
</svg>
